<svg width="112" height="163" viewBox="0 0 112 163" fill="none" xmlns="http://www.w3.org/2000/svg">
<path d="M23.4946 77.6293H35.7766C36.2525 76.3094 36.7158 74.9863 37.1409 73.6506L31.744 65.0459L35.7988 66.5752L34.0062 61.5494L36.7126 62.5013C34.5424 53.0399 37.8739 46.0153 43.1027 39.8283C41.7447 47.9412 41.2846 55.0991 42.3095 60.6833C42.0271 44.4606 46.9767 24.9478 65.8898 15.8101C64.3383 20.5312 63.2532 25.4872 63.0533 30.8778C69.7004 12.6753 70.5095 6.74534 85.7073 0.180782L80.7926 11.5553C82.0522 9.4232 83.6418 7.69084 84.7205 5.85378C90.108 -3.34105 109.154 -1.30092 111.683 9.15351C112.07 10.7621 112.089 12.3866 111.813 14.0174C108.326 29.2311 95.0671 36.2335 73.6696 36.408C77.0899 38.4323 88.2709 37.9342 100.118 34.4123C91.4025 41.9858 84.7269 50.2701 72.4354 55.5814C74.1899 56.2508 77.4548 56.3365 80.2976 56.4983C73.2032 62.5996 62.6916 66.3023 49.6672 67.9712C51.3107 69.6433 55.9208 68.701 60.7721 69.9796L48.2363 73.0477L51.9294 74.5231L43.2708 73.6664C47.2019 64.7699 51.5709 56.273 56.7616 48.525C69.4878 29.523 86.272 16.1686 108.282 9.18841C106.216 9.18207 104.211 9.42955 102.254 9.86105C95.0893 11.4411 87.3603 16.0131 81.3669 20.0997C70.1129 27.7748 61.5938 36.9696 53.9854 48.2744C46.9894 58.6717 42.7759 67.4826 39.3936 77.6293H54.0013C55.4513 77.6293 56.7743 78.2258 57.7357 79.184L57.7516 79.1998C58.7066 80.1612 59.2999 81.4811 59.2999 82.9279V94.4928C59.2999 95.9396 58.7034 97.2659 57.742 98.2304L57.7452 98.2336C56.9901 98.9887 56.0097 99.5186 54.9151 99.7121V106.635C55.9938 107.01 57.2503 107.416 58.5828 107.841C65.3124 109.995 73.7711 112.708 76.3633 117.88C77.4167 119.986 77.6832 122.198 77.3881 124.619C77.1248 126.795 76.4046 129.127 75.4178 131.726L67.619 153.171L67.508 153.422C66.3277 155.827 64.9063 157.806 63.231 159.314C61.4987 160.875 59.503 161.941 57.2312 162.461C57.0155 162.518 56.787 162.55 56.5554 162.55H20.9405C20.7628 162.547 20.582 162.528 20.398 162.489C18.0723 161.982 16.0322 160.906 14.2617 159.314C12.6214 157.835 11.2254 155.903 10.0578 153.561C9.98795 153.437 9.92767 153.307 9.87691 153.171L2.07812 131.726C1.11993 129.2 0.412388 126.922 0.13318 124.774C-0.177756 122.382 0.0348231 120.205 0.993014 118.146C3.49002 112.784 12.1106 110.021 18.9448 107.831C20.2647 107.409 21.5116 107.01 22.5809 106.635V99.7089C21.4926 99.5186 20.5122 98.9887 19.7602 98.2367H19.7475C18.7894 97.2754 18.196 95.9491 18.196 94.4928V82.9279C18.196 81.4684 18.7894 80.1422 19.7475 79.184C20.7057 78.2258 22.032 77.6293 23.4946 77.6293ZM29.6087 117.664H47.8841V122.813H29.6087V117.664ZM11.8631 143.608H65.6328L70.611 129.917C71.4613 127.681 72.0737 125.723 72.2831 124.016C72.4608 122.55 72.3338 121.281 71.7786 120.17C70.1605 116.937 62.8376 114.593 57.0123 112.727C54.9087 112.054 52.9796 111.436 51.3774 110.779C50.3811 110.376 49.7814 109.418 49.7783 108.406H49.7688V99.7883H27.7272V108.406C27.7272 109.58 26.9435 110.566 25.8743 110.877C24.3259 111.496 22.4984 112.08 20.5122 112.717C14.633 114.602 7.21174 116.982 5.65706 120.32C5.13989 121.43 5.03518 122.683 5.21921 124.111C5.43813 125.78 6.04731 127.712 6.88494 129.917L11.8631 143.608ZM63.7609 148.758H13.7351L14.6647 151.315C15.5309 153.044 16.5398 154.446 17.7011 155.493C18.7354 156.426 19.9094 157.07 21.2293 157.403H56.2667C57.5866 157.07 58.7574 156.426 59.7949 155.493C60.9561 154.446 61.9651 153.044 62.8312 151.315L63.7609 148.758ZM54.0013 82.7756H23.4946C23.4534 82.7756 23.4153 82.7946 23.3899 82.8232C23.3614 82.8518 23.3423 82.8898 23.3423 82.9279V94.4928C23.3423 94.5309 23.3614 94.5658 23.3899 94.5944C23.4121 94.6261 23.4502 94.6419 23.4946 94.6419H25.154H52.3419H54.0013C54.0394 94.6419 54.0774 94.6229 54.106 94.5944H54.1155C54.1377 94.5721 54.1536 94.5341 54.1536 94.4928V82.9279C54.1536 82.8835 54.1377 82.8454 54.1155 82.8232L54.106 82.8137C54.0838 82.7915 54.0457 82.7756 54.0013 82.7756Z" fill="#183C46"/>
</svg>
