<svg width="20" height="14" viewBox="0 0 20 14" fill="none" xmlns="http://www.w3.org/2000/svg">
<path d="M1.25 2.06424C2.35625 1.66894 3.9425 1.24266 5.485 1.11018C7.1475 0.967019 8.5575 1.17749 9.375 1.9136V12.326C8.20625 11.7598 6.725 11.6818 5.35875 11.7993C3.88375 11.9275 2.39625 12.2918 1.25 12.6657V2.06424ZM10.625 1.9136C11.4425 1.17749 12.8525 0.967019 14.515 1.11018C16.0575 1.24266 17.6438 1.66894 18.75 2.06424V12.6657C17.6025 12.2918 16.1163 11.9264 14.6413 11.8004C13.2738 11.6818 11.7938 11.7587 10.625 12.326V1.9136ZM10 0.947788C8.76875 0.0428727 6.98375 -0.0917427 5.35875 0.0471462C3.46625 0.210608 1.55625 0.765096 0.36625 1.2277C0.257061 1.27015 0.164469 1.33855 0.0995263 1.42475C0.0345834 1.51094 3.32143e-05 1.61129 0 1.71381L0 13.466C2.89525e-05 13.5553 0.0262964 13.6433 0.0763964 13.7217C0.126496 13.8002 0.198827 13.8666 0.286764 13.915C0.3747 13.9634 0.475431 13.9921 0.579729 13.9986C0.684028 14.0051 0.78856 13.9891 0.88375 13.9521C1.98625 13.5247 3.7625 13.0108 5.48375 12.8623C7.245 12.7106 8.72125 12.9553 9.5125 13.7993C9.57106 13.8617 9.64527 13.912 9.72965 13.9466C9.81402 13.9812 9.90642 13.9992 10 13.9992C10.0936 13.9992 10.186 13.9812 10.2704 13.9466C10.3547 13.912 10.4289 13.8617 10.4875 13.7993C11.2788 12.9553 12.755 12.7106 14.515 12.8623C16.2375 13.0108 18.015 13.5247 19.1163 13.9521C19.2114 13.9891 19.316 14.0051 19.4203 13.9986C19.5246 13.9921 19.6253 13.9634 19.7132 13.915C19.8012 13.8666 19.8735 13.8002 19.9236 13.7217C19.9737 13.6433 20 13.5553 20 13.466V1.71381C20 1.61129 19.9654 1.51094 19.9005 1.42475C19.8355 1.33855 19.7429 1.27015 19.6337 1.2277C18.4437 0.765096 16.5338 0.210608 14.6413 0.0471462C13.0163 -0.0928111 11.2313 0.0428727 10 0.947788Z" fill="white"/>
</svg>
