<svg width="125" height="103" viewBox="0 0 125 103" fill="none" xmlns="http://www.w3.org/2000/svg">
<path d="M12.8581 78.322L13.1734 22.6556H6.86646V93.4853C15.5334 91.2554 24.231 89.8364 32.9895 89.7756C41.0767 89.7249 49.1638 90.85 57.2713 93.5866C52.2359 89.5222 46.6207 86.5321 40.6291 84.586C33.0811 82.1331 24.9227 81.3222 16.5609 82.0317C14.6688 82.1838 13.0208 80.785 12.8581 78.9099C12.8377 78.7072 12.8377 78.5146 12.8581 78.322ZM105.408 19.7466C105.387 19.5845 105.367 19.4122 105.367 19.2297C105.367 19.0574 105.377 18.8851 105.408 18.7128V7.44167C97.4732 6.69161 89.2944 7.5633 82.1533 10.2594C75.4801 12.7833 69.7225 16.9289 65.979 22.8685V87.0693C71.7977 83.1974 77.7486 80.0147 83.8623 77.8456C90.8305 75.3724 97.992 74.1967 105.408 74.7846V19.7466ZM112.274 15.8139H121.572C123.464 15.8139 125 17.3444 125 19.2297V97.9451C125 99.8304 123.464 101.361 121.572 101.361C121.185 101.361 120.809 101.3 120.463 101.178C110.901 98.4519 101.4 96.6376 91.9902 96.5767C82.8145 96.5159 73.6491 98.1275 64.443 102.172C63.8733 102.547 63.1917 102.749 62.4898 102.739C61.7981 102.749 61.1165 102.547 60.5367 102.172C51.3407 98.1174 42.1651 96.5159 32.9895 96.5767C23.5799 96.6376 14.0889 98.4519 4.5166 101.178C4.17074 101.3 3.79435 101.361 3.4078 101.361C1.53605 101.371 0 99.8405 0 97.9552V19.2297C0 17.3444 1.53605 15.8139 3.42814 15.8139H13.2039L13.265 4.4009C13.2751 2.75889 14.4348 1.40068 15.9912 1.07633C25.0142 -0.798814 35.9802 -0.332563 45.5933 3.33663C52.2359 5.87061 58.2682 9.91483 62.6729 15.7531C67.1183 10.3101 73.0591 6.39767 79.7424 3.87383C88.8774 0.417493 99.4161 -0.41365 109.334 1.03578C111.043 1.27904 112.264 2.74875 112.264 4.41104V15.8139H112.274ZM69.3054 93.0697C76.884 90.6979 84.4523 89.7249 92.0207 89.7654C100.779 89.8161 109.477 91.2453 118.144 93.4752V22.6556H112.274V78.6261C112.274 80.5113 110.738 82.0419 108.846 82.0419C108.571 82.0419 108.307 82.0115 108.053 81.9506C100.545 80.7749 93.2719 81.7479 86.1715 84.2718C80.4545 86.3091 74.8393 89.3498 69.3054 93.0697ZM59.1227 86.4104V22.7671C55.5318 16.4525 49.7233 12.2258 43.162 9.72225C35.7259 6.8842 27.3743 6.24563 20.0907 7.27949L19.7042 74.9974C27.6489 74.7136 35.4207 75.7171 42.7348 78.099C48.5535 79.9843 54.067 82.7514 59.1227 86.4104Z" fill="#183C46"/>
</svg>
