<svg width="27" height="27" viewBox="0 0 27 27" fill="none" xmlns="http://www.w3.org/2000/svg">
<path d="M3.95561 0H23.0444C24.1328 0 25.1221 0.445078 25.8383 1.16174C26.5549 1.87787 27 2.86717 27 3.95561V23.0444C27 24.1328 26.5549 25.1221 25.8383 25.8383C25.1221 26.5549 24.1328 27 23.0444 27H3.95561C2.86822 27 1.87998 26.5549 1.16332 25.8383L1.16174 25.8367C0.445078 25.12 0 24.1318 0 23.0444V3.95561C0 2.86822 0.445078 1.87998 1.16174 1.16332L1.16332 1.16174C1.87998 0.445078 2.86822 0 3.95561 0ZM8.02828 15.9152L10.9798 18.8931L17.3681 12.5049L14.4044 9.53912L8.02828 15.9152ZM10.1255 19.3192L7.6043 16.7759L6.82857 19.537C6.72996 19.8888 6.65508 20.1783 6.6034 20.4061C7.53416 20.1282 8.45754 19.836 9.38408 19.546L10.1176 19.3219L10.1255 19.3192ZM17.9392 6.54645C17.8965 6.50426 17.8532 6.47367 17.81 6.45574C17.7704 6.43887 17.723 6.43043 17.6671 6.43043C17.6122 6.43043 17.5648 6.43887 17.5257 6.45574C17.4851 6.47262 17.4429 6.50373 17.3997 6.54645L16.3819 7.56422L19.3467 10.5421L20.3787 9.51012C20.4124 9.47637 20.4372 9.43945 20.452 9.40148C20.4699 9.35561 20.4789 9.30076 20.4789 9.23959C20.4789 9.17842 20.471 9.12463 20.4536 9.08139C20.4383 9.04236 20.414 9.00492 20.3808 8.97223L17.9392 6.54645ZM18.1617 5.62043C18.3152 5.68529 18.4539 5.77969 18.5783 5.90361L21.0199 8.32939C21.1428 8.45121 21.2346 8.59254 21.2957 8.74705C21.3585 8.90525 21.3885 9.07137 21.3885 9.23959C21.3885 9.41045 21.359 9.57603 21.2978 9.7316C21.2361 9.88965 21.1422 10.0331 21.022 10.1529L19.6668 11.5066C19.489 11.6833 19.2016 11.6822 19.0255 11.5045L15.419 7.88432C15.3767 7.84208 15.3432 7.79193 15.3204 7.73674C15.2975 7.68154 15.2857 7.62238 15.2857 7.56264C15.2857 7.50289 15.2975 7.44373 15.3204 7.38854C15.3432 7.33334 15.3767 7.28319 15.419 7.24096L16.7563 5.90361C16.8787 5.78127 17.0179 5.68687 17.174 5.62043C17.3301 5.55451 17.4946 5.52076 17.6671 5.52076C17.8395 5.52076 18.0046 5.55398 18.1617 5.62043ZM11.0869 19.9784L9.65039 20.4124C8.72701 20.703 7.80838 20.9883 6.88342 21.2715C6.56279 21.3685 6.34975 21.4312 6.24691 21.4597L6.19998 21.4703C6.15674 21.4782 6.11666 21.4803 6.07816 21.4777L6.0133 21.4682C5.78707 21.4276 5.65629 21.2783 5.6199 21.022L5.61674 20.9967C5.60883 20.9208 5.61146 20.828 5.62359 20.7209C5.65576 20.4409 5.76598 19.9642 5.95424 19.2918L6.93352 15.8077C6.95412 15.7324 6.99413 15.6638 7.04953 15.6088L14.0822 8.57514C14.1244 8.53288 14.1746 8.49936 14.2298 8.47649C14.285 8.45363 14.3441 8.44186 14.4039 8.44186C14.4636 8.44186 14.5228 8.45363 14.578 8.47649C14.6332 8.49936 14.6833 8.53288 14.7255 8.57514L18.3315 12.1864C18.5082 12.3636 18.5071 12.6499 18.3305 12.8266L11.301 19.8582C11.2421 19.9173 11.168 19.9589 11.0869 19.9784ZM23.0444 0.909668H3.95561C3.11766 0.909668 2.35617 1.25244 1.80404 1.80404C1.25244 2.35617 0.909668 3.11766 0.909668 3.95561V23.0444C0.909668 23.8823 1.25244 24.6438 1.80404 25.196C2.35617 25.7476 3.11766 26.0903 3.95561 26.0903H23.0444C23.8818 26.0903 24.6433 25.7476 25.1954 25.1954C25.7476 24.6433 26.0903 23.8818 26.0903 23.0444V3.95561C26.0903 3.11818 25.7476 2.3567 25.1954 1.80457C24.6433 1.25244 23.8818 0.909668 23.0444 0.909668Z" fill="#00C8FF"/>
</svg>
