<svg width="31" height="27" viewBox="0 0 31 27" fill="none" xmlns="http://www.w3.org/2000/svg">
<path d="M1.24198 7.64078H23.3577C23.7 7.64078 24.0106 7.78859 24.2353 8.02674C24.4601 8.26489 24.5999 8.59418 24.5999 8.95661V25.6842C24.5999 26.0466 24.4604 26.3762 24.2353 26.614C24.2157 26.6352 24.195 26.6547 24.1733 26.6731C23.9546 26.8765 23.6692 27 23.3579 27H1.24198C0.899885 27 0.589075 26.8522 0.364293 26.6143C0.139511 26.3764 0 26.0469 0 25.6844V8.95661C0 8.59391 0.139511 8.26489 0.364293 8.02674C0.588823 7.78859 0.899633 7.64078 1.24198 7.64078ZM8.25816 1.56413C7.85047 1.56413 7.51998 1.21399 7.51998 0.782066C7.51998 0.350406 7.85047 0 8.25816 0H30.2623C30.6698 0 31 0.350406 31 0.782066V17.2135C31 17.6454 30.6698 17.9955 30.2623 17.9955C29.8544 17.9955 29.5242 17.6454 29.5242 17.2135V1.56413H8.25816ZM4.92729 5.51964C4.51961 5.51964 4.18937 5.1695 4.18937 4.73757C4.18937 4.30564 4.51986 3.9555 4.92729 3.9555H26.9315C27.3389 3.9555 27.6696 4.30564 27.6696 4.73757V21.169C27.6696 21.6009 27.3389 21.951 26.9315 21.951C26.524 21.951 26.1933 21.6009 26.1933 21.169V5.51964H4.92729ZM23.1235 9.20465H1.47609V25.4364H23.1235V9.20465Z" fill="white"/>
</svg>
