<svg width="26" height="27" viewBox="0 0 26 27" fill="none" xmlns="http://www.w3.org/2000/svg">
<g clip-path="url(#clip0_4_64)">
<path d="M1.16994 1.99028H9.17685V1.3623V1.35945C9.17685 1.33857 9.17733 1.31858 9.18021 1.29814C9.19822 0.94834 9.36316 0.630835 9.61621 0.400342L9.61453 0.398804C9.87959 0.156226 10.2476 0.00549316 10.6529 0.00197754L10.6584 0.00241699V0H10.6659H15.4398H15.4436C15.4691 0 15.4933 0.00197754 15.5178 0.00483398C15.8979 0.023291 16.2426 0.171826 16.4935 0.402539C16.7581 0.645117 16.9223 0.981519 16.9264 1.35066L16.9257 1.35527H16.929V1.3623V1.99006H24.8301H24.8341C24.8673 1.99006 24.8985 1.99314 24.9304 1.99753C25.2142 2.02083 25.4716 2.13486 25.6588 2.30735L25.6598 2.30889L25.661 2.30735C25.8653 2.49565 25.9938 2.75735 25.9974 3.04739L25.9969 3.05442H26.0002V3.06145V5.44087C26.0002 5.76431 25.7133 6.02644 25.3599 6.02644H25.3431H0.640313C0.286904 6.02622 0 5.76409 0 5.44087V5.42703V3.06145V3.05837C0 3.03508 0.000960348 3.01201 0.00432157 2.98916V2.98455C0.0256893 2.71934 0.154136 2.4783 0.345726 2.30383L0.344045 2.30339C0.551 2.11421 0.837904 1.99666 1.15482 1.9927L1.1625 1.99314V1.99028H1.16994ZM18.6764 10.7879H17.2491V23.113H18.6764V10.7879ZM14.0355 10.7879H12.6075V23.113H14.0355V10.7879ZM9.39461 10.7879H7.96705V23.113H9.39461V10.7879ZM2.60182 6.93655H23.5818L23.6488 6.9405L23.6793 6.94204L23.7115 6.94446H23.7137L23.7528 6.94951C24.08 6.98533 24.3861 7.12288 24.6104 7.3248C24.8601 7.55002 25.0197 7.85544 25.0197 8.1958C25.0197 8.21733 25.0176 8.23821 25.0152 8.25864L25.0147 8.27358L25.0113 8.30742L23.2364 25.7394L23.2347 25.7489H23.2364L23.2325 25.7794L23.2203 25.8416L23.2198 25.8427L23.2193 25.8467C23.2061 25.9194 23.1905 25.9886 23.1691 26.0506L23.1675 26.0554L23.167 26.0565L23.1648 26.0604L23.1593 26.0741L23.1583 26.0787C23.13 26.1565 23.0949 26.2321 23.0546 26.3004C22.8124 26.7135 22.3634 27.0007 21.8052 27.0007H4.35278L4.29348 26.9976V26.9982L4.29084 26.9976L4.28316 26.9967C4.17272 26.9916 4.06972 26.9767 3.97392 26.9523C3.87429 26.9268 3.77753 26.8895 3.68654 26.8436L3.68438 26.8431L3.6839 26.8436C3.25534 26.6289 2.96964 26.2103 2.92282 25.7401L1.17163 8.30347L1.16898 8.276L1.16634 8.22173L1.16538 8.19624H1.16418C1.16418 7.855 1.3236 7.54893 1.57401 7.32371C1.80834 7.11387 2.13101 6.97236 2.47578 6.94446L2.50507 6.94358V6.94204L2.5771 6.93918L2.60206 6.93962V6.93655H2.60182ZM23.5821 8.10857H2.60182V8.10703L2.57397 8.10791C2.53484 8.11274 2.49667 8.1312 2.46882 8.15669C2.45369 8.17053 2.44385 8.18569 2.44385 8.19602H2.44217L2.44385 8.22195L4.19216 25.634H4.19168L4.19216 25.6366C4.19985 25.7192 4.24066 25.7884 4.29948 25.8179L4.299 25.8188L4.31917 25.8258L4.33429 25.8284H4.35278H21.8059C21.8556 25.8284 21.9017 25.7939 21.9303 25.7456L21.9505 25.7023L21.9634 25.6548L21.9668 25.6245H21.968L23.7408 8.21997L23.7401 8.1958C23.7401 8.18591 23.7302 8.17141 23.7153 8.15801C23.6865 8.13208 23.6467 8.11362 23.6071 8.10813L23.5821 8.10857ZM9.81644 3.16165H1.28014V4.85486H24.7199V3.16165H16.3036H16.2885C15.9351 3.16165 15.6489 2.89973 15.6489 2.57629V1.3623V1.35527H15.6506C15.6489 1.30693 15.6251 1.26013 15.5884 1.22673C15.5555 1.19575 15.5106 1.17642 15.4633 1.17136H15.4436H15.4398H10.6659H10.6584V1.17004C10.6073 1.17158 10.5571 1.1929 10.5201 1.22695L10.5192 1.22607L10.5175 1.22695C10.486 1.2564 10.462 1.29573 10.4553 1.33704L10.457 1.35945V1.3623V2.57607C10.4568 2.89951 10.1699 3.16165 9.81644 3.16165Z" fill="#FF6161"/>
</g>
<defs>
<clipPath id="clip0_4_64">
<rect width="26" height="27" fill="white"/>
</clipPath>
</defs>
</svg>
